<svg width="50" height="50" viewBox="0 0 50 50" fill="none" xmlns="http://www.w3.org/2000/svg">
<path d="M30.1788 8.21457C32.4472 8.21457 34.2861 6.37567 34.2861 4.10728C34.2861 1.83889 32.4472 0 30.1788 0C27.9104 0 26.0715 1.83889 26.0715 4.10728C26.0715 6.37567 27.9104 8.21457 30.1788 8.21457Z" fill="white"/>
<path d="M17.4354 12.1527C16.5209 12.5591 15.6426 12.9798 14.813 13.3962C12.3 14.6582 14.5085 18.4188 17.0147 17.1611C17.162 17.0879 17.3117 17.0206 17.459 16.9491C17.3849 15.3623 17.3546 13.7588 17.4354 12.1527Z" fill="white"/>
<path d="M35.861 12.1494C35.9939 11.3956 35.7003 10.6232 34.7471 10.2144C31.1252 8.65878 26.9809 8.99446 23.0352 10.0974C23.036 10.2573 23.0284 10.418 23.0032 10.5803C22.7979 11.9029 22.755 13.0429 22.7811 14.4049L30.1796 14.1416C30.1796 14.1416 31.2161 14.4142 30.4438 14.7827C29.356 14.8306 22.177 15.1764 22.177 15.1764C22.0887 13.3508 22.0828 11.5218 22.3604 9.73061C22.7861 6.98036 18.5855 5.79916 18.1556 8.57128C17.5986 12.1603 17.8678 15.7191 18.0782 19.3249C18.169 20.9058 19.8819 22.1324 21.3584 21.2078C22.4227 20.5406 23.4483 19.7919 24.4259 18.985L24.4225 20.3942L24.3922 35.5925V47.6485C24.3922 48.9467 25.3412 50 26.6764 50C28.0099 50 29.0935 48.9467 29.0935 47.6485V30.4168H31.227C31.227 34.4542 31.227 43.6691 31.227 47.7074C31.227 50.5191 35.5884 50.5191 35.5884 47.7074C35.5884 43.6691 35.5884 39.6317 35.5884 35.5959C36.4777 17.3882 36.481 17.4429 35.861 12.1494Z" fill="white"/>
</svg>
