<svg width="227" height="198" viewBox="0 0 227 198" fill="none" xmlns="http://www.w3.org/2000/svg">
<g filter="url(#filter0_d_2_2338)">
<rect x="80" y="60" width="67" height="38" rx="10" fill="white"/>
</g>
<path d="M156.2 68.46C156.2 68.46 155.08 68.68 153.8 68.68V84H155.16L155.92 81.36C155.92 81.36 156.66 84.28 160.18 84.28C163.5 84.28 165.74 81.86 165.74 78.46C165.74 75.06 163.5 72.62 160.18 72.62C157.18 72.62 156.2 74.96 156.2 74.96V68.46ZM159.42 82.5C157.02 82.5 155.7 80.66 155.7 78.46C155.7 76.26 157.02 74.4 159.42 74.4C161.78 74.4 163.18 76.06 163.18 78.46C163.18 80.86 161.78 82.5 159.42 82.5ZM178.241 81.34L178.361 76.68C178.421 74.4 176.801 72.62 173.481 72.62C169.021 72.62 167.941 75.92 167.941 75.92L170.421 76.64C170.421 76.64 170.961 74.4 173.561 74.4C176.141 74.4 175.941 76.72 175.941 76.72C169.981 77.4 168.341 79.98 168.341 81.84C168.341 83.22 169.381 84.28 171.021 84.28C174.341 84.28 175.941 79.8 175.941 79.8V81.7C175.941 83.66 177.181 84.28 178.421 84.28C180.281 84.28 181.021 83.28 181.021 83.28L180.541 81.5C180.541 81.5 180.101 82.5 179.121 82.5C178.481 82.5 178.221 82.04 178.241 81.34ZM170.881 81.34C170.881 80.36 171.481 78.54 175.941 77.4V78.1C175.981 78.94 174.061 82.5 171.941 82.5C171.281 82.5 170.881 82.1 170.881 81.34ZM185.223 77.42C185.223 76.78 185.883 74.4 187.423 74.4C188.083 74.4 188.403 74.9 188.403 75.86C188.403 77.14 187.983 78.42 187.983 78.42L190.463 77.7C190.463 77.7 190.863 76.76 190.863 75.34C190.863 73.88 190.283 72.62 188.443 72.62C185.383 72.62 185.003 76.2 185.003 76.2L183.983 72.9H182.823V84H185.223V77.42ZM202.558 81.34L202.678 76.68C202.738 74.4 201.118 72.62 197.798 72.62C193.338 72.62 192.258 75.92 192.258 75.92L194.738 76.64C194.738 76.64 195.278 74.4 197.878 74.4C200.458 74.4 200.258 76.72 200.258 76.72C194.298 77.4 192.658 79.98 192.658 81.84C192.658 83.22 193.698 84.28 195.338 84.28C198.658 84.28 200.258 79.8 200.258 79.8V81.7C200.258 83.66 201.498 84.28 202.738 84.28C204.598 84.28 205.338 83.28 205.338 83.28L204.858 81.5C204.858 81.5 204.418 82.5 203.438 82.5C202.798 82.5 202.538 82.04 202.558 81.34ZM195.198 81.34C195.198 80.36 195.798 78.54 200.258 77.4V78.1C200.298 78.94 198.378 82.5 196.258 82.5C195.598 82.5 195.198 82.1 195.198 81.34ZM216.1 84H218.5V77.12C218.5 74.32 217.14 72.62 213.84 72.62C209.6 72.62 209.32 76.2 209.32 76.2L208.3 72.9H207.14V84H209.54V77.4C209.54 76.72 209.94 74.4 212.96 74.4C214.96 74.4 216.1 75.3 216.1 77.16V84Z" fill="white"/>
<path d="M103 74.02C103 74.02 102.08 68.18 94.86 68.18C89.34 68.18 86.2 71.56 86.2 76.24C86.2 80.9 89.34 84.28 94.26 84.28C99.06 84.28 100.14 81 100.14 81V84H102.74V76.12H94.28V77.82H100.14C100.14 77.82 99.84 82.3 94.66 82.3C91.1 82.3 88.94 79.66 88.94 76.24C88.94 72.8 91.1 70.16 94.86 70.16C99.86 70.16 100.32 74.82 100.32 74.82L103 74.02ZM109.588 84.02C108.848 85.72 107.728 86.9 106.748 86.9C105.768 86.9 105.348 86.08 105.328 86.04L105.048 87.82C105.048 87.82 105.768 88.74 107.248 88.74C109.088 88.74 110.308 87.08 111.808 84L117.188 72.9H114.468L111.128 80.76L107.628 72.9H104.868L109.908 83.3L109.588 84.02ZM135.903 84H138.303V77.12C138.303 74.32 137.343 72.62 134.243 72.62C131.143 72.62 130.143 74.72 129.843 75.7C129.523 73.76 128.403 72.62 125.883 72.62C121.843 72.62 121.363 76.2 121.363 76.2L120.343 72.9H119.183V84H121.583V77.4C121.583 76.72 121.983 74.4 124.803 74.4C126.543 74.4 127.483 75.26 127.543 77.02V84H129.943V77.4C129.943 76.72 130.343 74.4 133.163 74.4C134.963 74.4 135.903 75.3 135.903 77.16V84Z" fill="#7270EE"/>
<defs>
<filter id="filter0_d_2_2338" x="0" y="0" width="227" height="198" filterUnits="userSpaceOnUse" color-interpolation-filters="sRGB">
<feFlood flood-opacity="0" result="BackgroundImageFix"/>
<feColorMatrix in="SourceAlpha" type="matrix" values="0 0 0 0 0 0 0 0 0 0 0 0 0 0 0 0 0 0 127 0" result="hardAlpha"/>
<feOffset dy="20"/>
<feGaussianBlur stdDeviation="40"/>
<feComposite in2="hardAlpha" operator="out"/>
<feColorMatrix type="matrix" values="0 0 0 0 0.2 0 0 0 0 0.305882 0 0 0 0 0.482353 0 0 0 0.3 0"/>
<feBlend mode="normal" in2="BackgroundImageFix" result="effect1_dropShadow_2_2338"/>
<feBlend mode="normal" in="SourceGraphic" in2="effect1_dropShadow_2_2338" result="shape"/>
</filter>
</defs>
</svg>
