<svg width="50" height="50" viewBox="0 0 50 50" fill="none" xmlns="http://www.w3.org/2000/svg">
<g clip-path="url(#clip0_2_1354)">
<path d="M48.9747 32.803C42.5954 27.6252 37.4322 21.3364 33.0916 14.3883C32.7611 13.8607 32.349 13.4979 31.8989 13.2716C30.3669 11.9707 28.0293 11.5764 26.1418 13.3379C22.4872 16.7461 18.7695 20.0097 14.8021 23.0511C14.3117 23.4268 13.8858 23.8623 13.5465 24.339C13.2839 24.4392 13.031 24.5766 12.8055 24.7697C9.46518 27.6382 5.55277 30.4816 1.17494 33.2224C0.00332071 33.956 -0.351398 35.5001 0.383088 36.6734C0.858201 37.4313 1.67268 37.8474 2.50655 37.8474C2.96066 37.8474 3.41961 37.7246 3.83251 37.4652C7.68512 35.0525 11.1984 32.5557 14.3181 30.021C15.674 31.0755 17.7037 31.4706 19.1105 30.3911C22.9857 27.4224 26.6832 24.3229 30.2877 21.0585C34.369 27.0095 39.1032 32.4862 44.7262 37.0515C47.7061 39.4699 51.9838 35.2464 48.9747 32.803Z" fill="white"/>
<path d="M10.9964 24.5386C13.3807 24.5386 15.3136 22.6057 15.3136 20.2214C15.3136 17.837 13.3807 15.9041 10.9964 15.9041C8.61202 15.9041 6.67913 17.837 6.67913 20.2214C6.67913 22.6057 8.61202 24.5386 10.9964 24.5386Z" fill="white"/>
</g>
<defs>
<clipPath id="clip0_2_1354">
<rect width="50" height="50" fill="white"/>
</clipPath>
</defs>
</svg>
